<svg xmlns="http://www.w3.org/2000/svg" width="163" height="863" viewBox="0 0 163 863">
    <g fill="none" fill-rule="evenodd">
        <g fill="#F3B058">
            <path d="M105.066.976H58.517C54.932.976 52 3.99 52 7.673v37.704c0 3.684 2.932 6.696 6.517 6.696h18.129c2.06 2.246 5.006 5.924 5.145 8.756.144-2.832 3.088-6.51 5.146-8.756h18.129c3.585 0 6.517-3.012 6.517-6.696V7.673c0-3.683-2.932-6.697-6.517-6.697m0 2.494c2.224 0 4.034 1.886 4.034 4.203v37.704c0 2.317-1.81 4.202-4.034 4.202H85.848l-.737.805c-1.334 1.456-2.442 2.837-3.318 4.14-.877-1.303-1.986-2.685-3.322-4.141l-.738-.804H58.517c-2.225 0-4.034-1.885-4.034-4.202V7.673c0-2.317 1.809-4.203 4.034-4.203h46.549"/>
            <path d="M62.345 24.35h38.276v-3.103H62.345zM62.345 16.074h38.276v-3.103H62.345zM62.345 32.626h38.276v-3.103H62.345zM70.62 40.902h22.76v-3.104H70.62z"/>
            <path fill-rule="nonzero" d="M49.504 80.6c.288 0 .512.192.576.48l5.024 21.056c.096.48-.224.864-.704.864h-2.144c-.48-.096-.512-.608-.64-1.12l-.096-.352c-.16-.672-.576-.992-1.248-.992h-3.904c-.672 0-1.088.32-1.248.992l-.256.992c-.064.288-.288.48-.576.48H42.24c-.48 0-.8-.384-.704-.864L46.56 81.08c.064-.288.288-.48.576-.48h2.368zm-3.008 15.232c-.192.8.192 1.28.992 1.28h1.664c.832 0 1.216-.48 1.024-1.28l-1.152-4.64c-.288-1.12-1.12-1.12-1.408 0l-1.12 4.64zm18.848-7.68a.642.642 0 0 1-.64-.64v-1.504c0-1.184-.128-2.56-1.568-2.56-1.728 0-1.568 1.92-1.568 3.456 0 1.408 1.888 2.944 2.528 3.392.416.288 4.16 3.008 4.16 6.4 0 3.52-.704 6.688-5.12 6.688-2.912 0-5.12-1.088-5.12-6.688v-.64c0-.352.288-.64.64-.64h2.272c.352 0 .64.288.64.64v1.536c0 1.216.096 2.56 1.568 2.56 1.728 0 1.568-1.92 1.568-3.456 0-1.344-2.272-3.296-2.528-3.456-.704-.448-4.16-3.36-4.16-6.336 0-3.552.704-6.688 5.12-6.688 4.128 0 5.12 2.688 5.12 6.688v.608c0 .352-.288.64-.64.64h-2.272zm9.632-7.552c.352 0 .64.288.64.64v5.696c0 .96.704 1.12 1.152.288L80 80.92a.57.57 0 0 1 .512-.32H82.4c.64 0 .992.576.704 1.152l-3.552 6.912c-.224.416-.256.8-.096 1.28l3.904 12.096c.16.512-.16.96-.672.96h-2.08c-.288 0-.512-.16-.576-.416l-2.464-7.52c-.256-.832-.864-.928-1.216-.192l-.448.864c-.224.384-.288.704-.288 1.184v5.44c0 .352-.288.64-.64.64h-2.24a.642.642 0 0 1-.64-.64V81.24c0-.352.288-.64.64-.64h2.24zm15.264 0c.352 0 .64.288.64.64v21.12c0 .352-.288.64-.64.64H88a.642.642 0 0 1-.64-.64V81.24c0-.352.288-.64.64-.64h2.24zm8.384 0c.288 0 .512.16.576.416l3.04 9.568c.224.672.864.576.864-.128V81.24c0-.352.288-.64.64-.64h2.24c.352 0 .64.288.64.64v21.12c0 .352-.288.64-.64.64h-2.336c-.288 0-.512-.16-.576-.416l-3.008-9.568c-.224-.672-.864-.576-.864.128v9.216c0 .352-.288.64-.64.64h-2.24a.642.642 0 0 1-.64-.64V81.24c0-.352.288-.64.64-.64h2.304zm11.84 5.312c.064-3.456 2.336-5.696 6.048-5.696 3.648 0 5.984 2.24 5.984 5.728v1.408c0 .352-.288.64-.64.64h-2.24a.642.642 0 0 1-.64-.64v-1.408c0-1.088-.288-2.208-2.464-2.208-2.208 0-2.528 1.12-2.528 2.208v11.712c0 1.088.32 2.208 2.528 2.208 2.176 0 2.464-1.12 2.464-2.208v-1.312c0-.928-.32-1.44-.928-1.44h-.928a.642.642 0 0 1-.64-.64v-2.24c0-.352.288-.64.64-.64h4.736c.352 0 .64.288.64.64v5.632c0 3.488-2.336 5.728-5.984 5.728-3.712 0-5.984-2.24-6.048-5.696V85.912zm-86.832 32.224c0-3.552 2.272-5.92 5.696-5.92 3.456 0 5.76 2.368 5.76 5.92v11.488c0 1.088-.224 2.016-.64 2.816-.224.48-.224.992.096 1.408l1.28 1.792c.224.288.16.672-.128.896l-1.76 1.312c-.32.224-.704.16-.928-.16l-1.376-1.888c-.288-.416-.768-.576-1.312-.48-.32.032-.64.064-.992.064-3.424-.064-5.696-2.368-5.696-5.76v-11.488zm3.52 11.488c0 1.344.864 2.24 2.176 2.24 1.312 0 2.208-.896 2.208-2.24v-11.488c0-1.44-.896-2.4-2.208-2.4-1.312 0-2.176.96-2.176 2.4v11.488zM42.288 112.6c.352 0 .64.288.64.64v17.824c0 .768 1.28.8 1.344.8.064 0 1.344-.032 1.344-.8V113.24c0-.352.288-.64.64-.64h2.24c.352 0 .64.288.64.64v17.824c0 2.432-2.112 4.32-4.864 4.32s-4.864-1.888-4.864-4.32V113.24c0-.352.288-.64.64-.64h2.24zm20.736 0c.352 0 .64.288.64.64v2.24c0 .352-.288.64-.64.64h-4.128c-.928 0-1.44.512-1.44 1.44v3.04c0 .928.512 1.44 1.44 1.44h4.128c.352 0 .64.288.64.64v2.24c0 .352-.288.64-.64.64h-4.128c-.928 0-1.44.512-1.44 1.44v3.04c0 .928.512 1.44 1.44 1.44h4.128c.352 0 .64.288.64.64v2.24c0 .352-.288.64-.64.64h-8.448a.642.642 0 0 1-.64-.64v-21.12c0-.352.288-.64.64-.64h8.448zm11.328 7.552a.642.642 0 0 1-.64-.64v-1.504c0-1.184-.128-2.56-1.568-2.56-1.728 0-1.568 1.92-1.568 3.456 0 1.408 1.888 2.944 2.528 3.392.416.288 4.16 3.008 4.16 6.4 0 3.52-.704 6.688-5.12 6.688-2.912 0-5.12-1.088-5.12-6.688v-.64c0-.352.288-.64.64-.64h2.272c.352 0 .64.288.64.64v1.536c0 1.216.096 2.56 1.568 2.56 1.728 0 1.568-1.92 1.568-3.456 0-1.344-2.272-3.296-2.528-3.456-.704-.448-4.16-3.36-4.16-6.336 0-3.552.704-6.688 5.12-6.688 4.128 0 5.12 2.688 5.12 6.688v.608c0 .352-.288.64-.64.64h-2.272zm14.592-7.552c.352 0 .64.288.64.64v2.24c0 .352-.288.64-.64.64h-.96c-.928 0-1.44.512-1.44 1.44v16.8c0 .352-.288.64-.64.64h-2.24a.642.642 0 0 1-.64-.64v-16.8c0-.928-.416-1.44-1.184-1.44h-1.216a.642.642 0 0 1-.64-.64v-2.24c0-.352.288-.64.64-.64h8.32zm7.2 0c.352 0 .64.288.64.64v21.12c0 .352-.288.64-.64.64h-2.24a.642.642 0 0 1-.64-.64v-21.12c0-.352.288-.64.64-.64h2.24zm4.96 4.864c.064-2.976 2.304-5.248 5.184-5.248 2.976 0 5.216 2.4 5.216 5.248v12.768c-.064 2.976-2.368 5.152-5.216 5.152-2.944-.096-5.184-2.24-5.184-5.152v-12.768zm3.52 12.768c0 1.472 1.28 1.632 1.664 1.632.416 0 1.696-.16 1.696-1.632v-12.768c0-1.536-1.28-1.728-1.696-1.728-.384 0-1.664.192-1.664 1.728v12.768zm14.144-17.632c.288 0 .512.16.576.416l3.04 9.568c.224.672.864.576.864-.128v-9.216c0-.352.288-.64.64-.64h2.24c.352 0 .64.288.64.64v21.12c0 .352-.288.64-.64.64h-2.336c-.288 0-.512-.16-.576-.416l-3.008-9.568c-.224-.672-.864-.576-.864.128v9.216c0 .352-.288.64-.64.64h-2.24a.642.642 0 0 1-.64-.64v-21.12c0-.352.288-.64.64-.64h2.304zm19.168 7.552a.642.642 0 0 1-.64-.64v-1.504c0-1.184-.128-2.56-1.568-2.56-1.728 0-1.568 1.92-1.568 3.456 0 1.408 1.888 2.944 2.528 3.392.416.288 4.16 3.008 4.16 6.4 0 3.52-.704 6.688-5.12 6.688-2.912 0-5.12-1.088-5.12-6.688v-.64c0-.352.288-.64.64-.64h2.272c.352 0 .64.288.64.64v1.536c0 1.216.096 2.56 1.568 2.56 1.728 0 1.568-1.92 1.568-3.456 0-1.344-2.272-3.296-2.528-3.456-.704-.448-4.16-3.36-4.16-6.336 0-3.552.704-6.688 5.12-6.688 4.128 0 5.12 2.688 5.12 6.688v.608c0 .352-.288.64-.64.64h-2.272z"/>
        </g>
        <g fill="#EB7060">
            <path d="M76.976 247.464H54.107A2.11 2.11 0 0 1 52 245.357v-40.63a2.11 2.11 0 0 1 2.107-2.108h7.631V205h-7.356v40.081h22.594v2.382zM101.924 226.031h-2.381v-21.03h-7.387v-2.382h7.66a2.11 2.11 0 0 1 2.108 2.107v21.305z"/>
            <path d="M53.191 218.066h47.543v-2.381H53.19zM63.874 206.778h4.343v-6.396h-4.343v6.396zm4.725 2.382h-5.107c-1.121 0-2-.793-2-1.806v-7.547c0-1.013.879-1.807 2-1.807h5.107c1.121 0 2 .794 2 1.807v7.547c0 1.013-.879 1.806-2 1.806zM85.709 206.778h4.343v-6.396h-4.343v6.396zm4.725 2.382h-5.107c-1.122 0-2-.793-2-1.806v-7.547c0-1.013.878-1.807 2-1.807h5.107c1.103 0 2 .81 2 1.807v7.547c0 1.013-.88 1.806-2 1.806z"/>
            <path d="M70.33 205.001h13.29v-2.382H70.33zM95.902 229.861c-7.315 0-13.267 5.953-13.267 13.27 0 7.314 5.952 13.266 13.267 13.266 7.316 0 13.268-5.952 13.268-13.266 0-7.317-5.952-13.27-13.268-13.27m0 28.918c-8.63 0-15.649-7.02-15.649-15.648 0-8.63 7.02-15.652 15.65-15.652 8.629 0 15.649 7.021 15.649 15.652 0 8.628-7.02 15.648-15.65 15.648"/>
            <path d="M94.71 246.373h2.383v-9.186h-2.382z"/>
            <path d="M94.99 246.647h9.187v-2.382H94.99z"/>
            <path fill-rule="nonzero" d="M3.424 284.136c0-3.552 2.272-5.92 5.696-5.92 3.456 0 5.76 2.368 5.76 5.92v11.488c0 3.456-2.304 5.76-5.76 5.76-3.424-.064-5.696-2.368-5.696-5.76v-11.488zm3.52 11.488c0 1.344.864 2.24 2.176 2.24 1.312 0 2.208-.896 2.208-2.24v-11.488c0-1.44-.896-2.4-2.208-2.4-1.312 0-2.176.96-2.176 2.4v11.488zM24.448 278.6c2.944 0 5.088 2.624 5.088 6.496 0 3.968-2.08 6.464-5.088 6.464H24c-.928 0-1.44.512-1.44 1.44v7.36c0 .352-.288.64-.64.64h-2.24a.642.642 0 0 1-.64-.64v-21.12c0-.352.288-.64.64-.64h4.768zm-1.888 8c0 .928.32 1.44.96 1.44h.928c1.376 0 1.568-1.856 1.568-2.944 0-1.504-.48-2.976-1.568-2.976H24c-.928 0-1.44.512-1.44 1.44v3.04zm19.424-8c.352 0 .64.288.64.64v2.24c0 .352-.288.64-.64.64h-4.128c-.928 0-1.44.512-1.44 1.44v3.04c0 .928.512 1.44 1.44 1.44h4.128c.352 0 .64.288.64.64v2.24c0 .352-.288.64-.64.64h-4.128c-.928 0-1.44.512-1.44 1.44v3.04c0 .928.512 1.44 1.44 1.44h4.128c.352 0 .64.288.64.64v2.24c0 .352-.288.64-.64.64h-8.448a.642.642 0 0 1-.64-.64v-21.12c0-.352.288-.64.64-.64h8.448zm7.904 0c.288 0 .512.16.576.416l3.04 9.568c.224.672.864.576.864-.128v-9.216c0-.352.288-.64.64-.64h2.24c.352 0 .64.288.64.64v21.12c0 .352-.288.64-.64.64h-2.336c-.288 0-.512-.16-.576-.416l-3.008-9.568c-.224-.672-.864-.576-.864.128v9.216c0 .352-.288.64-.64.64h-2.24a.642.642 0 0 1-.64-.64v-21.12c0-.352.288-.64.64-.64h2.304zm15.68 0c.352 0 .64.288.64.64v21.12c0 .352-.288.64-.64.64h-2.24a.642.642 0 0 1-.64-.64v-21.12c0-.352.288-.64.64-.64h2.24zm8.384 0c.288 0 .512.16.576.416l3.04 9.568c.224.672.864.576.864-.128v-9.216c0-.352.288-.64.64-.64h2.24c.352 0 .64.288.64.64v21.12c0 .352-.288.64-.64.64h-2.336c-.288 0-.512-.16-.576-.416l-3.008-9.568c-.224-.672-.864-.576-.864.128v9.216c0 .352-.288.64-.64.64h-2.24a.642.642 0 0 1-.64-.64v-21.12c0-.352.288-.64.64-.64h2.304zm11.84 5.312c.064-3.456 2.336-5.696 6.048-5.696 3.648 0 5.984 2.24 5.984 5.728v1.408c0 .352-.288.64-.64.64h-2.24a.642.642 0 0 1-.64-.64v-1.408c0-1.088-.288-2.208-2.464-2.208-2.208 0-2.528 1.12-2.528 2.208v11.712c0 1.088.32 2.208 2.528 2.208 2.176 0 2.464-1.12 2.464-2.208v-1.312c0-.928-.32-1.44-.928-1.44h-.928a.642.642 0 0 1-.64-.64v-2.24c0-.352.288-.64.64-.64h4.736c.352 0 .64.288.64.64v5.632c0 3.488-2.336 5.728-5.984 5.728-3.712 0-5.984-2.24-6.048-5.696v-11.776zm28.704-5.312c5.44 0 6.88 6.976 6.88 11.2 0 4.352-1.28 11.2-6.88 11.2h-4.032a.642.642 0 0 1-.64-.64v-21.12c0-.352.288-.64.64-.64h4.032zm-1.152 17.728c0 .352.032 1.152.576 1.152h.576c2.976 0 3.36-5.568 3.36-7.68 0-1.92-.544-7.68-3.36-7.68-.736 0-1.152.416-1.152 1.152v13.056zm17.12-17.728c.288 0 .544.192.608.512l3.488 21.088c.064.448-.224.8-.672.8h-2.08c-.288 0-.544-.224-.608-.512l-.128-.768c-.096-.576-.416-.864-1.024-.864h-1.472c-.608 0-.928.256-1.024.8l-.128.8a.596.596 0 0 1-.608.544h-2.08c-.448 0-.736-.352-.672-.8l3.488-21.088a.614.614 0 0 1 .608-.512h2.304zm-2.112 15.808c-.096.64.224 1.024.896 1.024h.128c.672 0 .992-.384.896-1.024l-.416-2.72c-.128-.832-.96-.832-1.088 0l-.416 2.72zm18.016-15.808c.352 0 .64.288.64.64v2.24c0 .352-.288.64-.64.64h-.96c-.928 0-1.44.512-1.44 1.44v16.8c0 .352-.288.64-.64.64h-2.24a.642.642 0 0 1-.64-.64v-16.8c0-.928-.416-1.44-1.184-1.44h-1.216a.642.642 0 0 1-.64-.64v-2.24c0-.352.288-.64.64-.64h8.32zm13.408 0c.352 0 .64.288.64.64v2.24c0 .352-.288.64-.64.64h-4.128c-.928 0-1.44.512-1.44 1.44v3.04c0 .928.512 1.44 1.44 1.44h4.128c.352 0 .64.288.64.64v2.24c0 .352-.288.64-.64.64h-4.128c-.928 0-1.44.512-1.44 1.44v3.04c0 .928.512 1.44 1.44 1.44h4.128c.352 0 .64.288.64.64v2.24c0 .352-.288.64-.64.64h-8.448a.642.642 0 0 1-.64-.64v-21.12c0-.352.288-.64.64-.64h8.448zM8.992 310.216c2.016 0 3.424 1.152 3.456 2.688 0 .704-.512 2.112-1.376 2.112-.48 0-.864-.416-.896-.832 0-.16.064-.32.224-.448.16-.16.288-.352.416-.512.32-.544.352-1.088-.192-1.408-.288-.192-.704-.288-1.312-.288-1.536 0-2.848 1.088-2.816 2.56.032.48.16.96.448 1.472.416.672.96.832 1.536.736.256-.032.512-.032.832-.032 1.344 0 2.336.544 2.336 1.504.032 1.184-1.344 2.208-2.784 2.208a4.15 4.15 0 0 1-1.344-.256c-.832-.288-1.536-.352-1.952.416-.576.992-.832 2.272-.8 3.584.064 3.616 1.888 6.592 5.856 6.592 2.432 0 4.512-1.152 4.448-3.456-.032-1.824-1.472-3.744-3.552-3.744-3.2 0-2.624 2.816-2.112 3.136.256.16.608.256.608-.128 0-.928.736-1.248 1.536-1.248.832 0 1.632.544 1.664 1.6.032 1.248-1.024 1.888-2.208 1.888-1.696 0-3.616-1.344-3.648-3.168-.032-2.976 3.84-4.128 6.016-4.608 2.112-.48 2.912-1.344 2.88-2.592 0-1.312-.224-1.6-.448-1.6-.256 0-.288.448-.288.608 0 .64-.576.96-1.216.96-.8 0-1.76-.512-1.76-1.536-.032-.992.992-1.632 2.208-1.632 1.888 0 2.976 1.28 3.04 3.52 0 1.12-.384 2.304-1.888 3.392-.8.576-.864 1.088-.256 1.856.896 1.12 1.312 2.272 1.344 3.392.064 3.456-3.584 6.464-8.032 6.464-5.152 0-8.48-3.264-8.544-7.904-.064-2.4.992-5.024 3.2-6.88.704-.576.768-1.12.416-1.952a3.913 3.913 0 0 1-.384-1.632c-.064-2.656 2.624-4.832 5.344-4.832zm0 7.232c-.32.096-.32.576.096.8.32.16.64.224.832.224.288 0 .736-.128.736-.576 0-.608-.704-.576-1.056-.576-.128 0-.384.032-.608.128zm20-1.536c0-3.424 2.304-5.696 5.728-5.696 3.392 0 5.664 2.304 5.664 5.728v2.016c0 .352-.288.64-.64.64h-2.24a.642.642 0 0 1-.64-.64v-2.016c0-1.312-.864-2.208-2.144-2.208-1.312 0-2.208.896-2.208 2.24v11.648c0 1.344.896 2.24 2.208 2.24 1.28 0 2.144-.896 2.144-2.208v-2.016c0-.352.288-.64.64-.64h2.24c.352 0 .64.288.64.64v2.016c0 3.424-2.272 5.728-5.664 5.728-3.36 0-5.664-2.272-5.728-5.696v-11.776zm14.592-.448c.064-2.976 2.304-5.248 5.184-5.248 2.976 0 5.216 2.4 5.216 5.248v12.768c-.064 2.976-2.368 5.152-5.216 5.152-2.944-.096-5.184-2.24-5.184-5.152v-12.768zm3.52 12.768c0 1.472 1.28 1.632 1.664 1.632.416 0 1.696-.16 1.696-1.632v-12.768c0-1.536-1.28-1.728-1.696-1.728-.384 0-1.664.192-1.664 1.728v12.768zm14.08-17.632c.352 0 .64.288.64.64v17.824c0 .768 1.28.8 1.344.8.064 0 1.344-.032 1.344-.8V311.24c0-.352.288-.64.64-.64h2.24c.352 0 .64.288.64.64v17.824c0 2.432-2.112 4.32-4.864 4.32s-4.864-1.888-4.864-4.32V311.24c0-.352.288-.64.64-.64h2.24zm14.592 0c.288 0 .512.16.576.416l3.04 9.568c.224.672.864.576.864-.128v-9.216c0-.352.288-.64.64-.64h2.24c.352 0 .64.288.64.64v21.12c0 .352-.288.64-.64.64H80.8c-.288 0-.512-.16-.576-.416l-3.008-9.568c-.224-.672-.864-.576-.864.128v9.216c0 .352-.288.64-.64.64h-2.24a.642.642 0 0 1-.64-.64v-21.12c0-.352.288-.64.64-.64h2.304zm20.64 0c.352 0 .64.288.64.64v2.24c0 .352-.288.64-.64.64h-.96c-.928 0-1.44.512-1.44 1.44v16.8c0 .352-.288.64-.64.64h-2.24a.642.642 0 0 1-.64-.64v-16.8c0-.928-.416-1.44-1.184-1.44h-1.216a.642.642 0 0 1-.64-.64v-2.24c0-.352.288-.64.64-.64h8.32zm9.856 0c4.96 0 8.416 4.576 8.416 11.2 0 6.784-3.232 11.2-8.416 11.2h-4.896a.642.642 0 0 1-.64-.64v-21.12c0-.352.288-.64.64-.64h4.896zm-2.016 17.44c0 .928.352 1.44 1.024 1.44h.992c3.232 0 4.896-3.008 4.896-7.68 0-4.48-1.888-7.68-4.896-7.68h-.576c-.928 0-1.44.512-1.44 1.44v12.48zm13.248-12.576c.064-2.976 2.304-5.248 5.184-5.248 2.976 0 5.216 2.4 5.216 5.248v12.768c-.064 2.976-2.368 5.152-5.216 5.152-2.944-.096-5.184-2.24-5.184-5.152v-12.768zm3.52 12.768c0 1.472 1.28 1.632 1.664 1.632.416 0 1.696-.16 1.696-1.632v-12.768c0-1.536-1.28-1.728-1.696-1.728-.384 0-1.664.192-1.664 1.728v12.768zm13.632-17.632c.352 0 .64.256.64.608l.544 7.584c.064.736.896.8 1.056.064l1.472-7.744c.064-.32.288-.512.608-.512h1.184c.32 0 .544.192.608.512l1.472 7.744c.16.736.992.672 1.056-.064l.544-7.584c0-.352.288-.608.64-.608h2.144c.448 0 .736.32.672.768l-2.4 21.056a.596.596 0 0 1-.608.544l-1.792.032c-.32 0-.544-.192-.608-.512l-1.76-9.088c-.192-.928-.96-.928-1.152 0l-1.728 9.088c-.064.32-.288.512-.608.512l-1.792-.032a.596.596 0 0 1-.608-.544l-2.4-21.056c-.064-.448.224-.768.672-.768h2.144zm20 0c.288 0 .512.16.576.416l3.04 9.568c.224.672.864.576.864-.128v-9.216c0-.352.288-.64.64-.64h2.24c.352 0 .64.288.64.64v21.12c0 .352-.288.64-.64.64h-2.336c-.288 0-.512-.16-.576-.416l-3.008-9.568c-.224-.672-.864-.576-.864.128v9.216c0 .352-.288.64-.64.64h-2.24a.642.642 0 0 1-.64-.64v-21.12c0-.352.288-.64.64-.64h2.304z"/>
        </g>
        <g fill="#1DAA5A">
            <path d="M64.313 416.596c-2.167 0-3.931 1.69-3.931 3.768v19.142c0 2.079 1.764 3.771 3.931 3.771h1.755a1.19 1.19 0 0 1 1.141 1.53c-.813 2.744-.458 5.183 1.056 7.273.854-2.167 2.48-5.724 4.824-8.397.227-.258.553-.406.896-.406H93.47c2.166 0 3.93-1.692 3.93-3.771v-19.142c0-2.077-1.764-3.768-3.93-3.768H64.313zm4.395 38.957c-.299 0-.59-.112-.813-.321-2.775-2.594-3.927-5.95-3.324-9.573h-.258c-3.48 0-6.313-2.76-6.313-6.153v-19.142c0-3.39 2.832-6.15 6.313-6.15H93.47c3.48 0 6.311 2.76 6.311 6.15v19.142c0 3.393-2.831 6.153-6.311 6.153H74.537c-2.99 3.659-4.674 9.001-4.692 9.057a1.192 1.192 0 0 1-1.137.837z"/>
            <path d="M106.844 437.332a1.191 1.191 0 0 1-1.137-.836c-.018-.056-1.713-5.41-4.689-9.054H98.59v-2.382h2.98c.344 0 .67.148.896.406 2.34 2.67 3.967 6.227 4.82 8.394 1.517-2.09 1.873-4.528 1.057-7.269a1.191 1.191 0 0 1 1.141-1.531h1.757c2.166 0 3.929-1.692 3.929-3.772V402.15c0-2.078-1.763-3.77-3.93-3.77H82.084c-2.17 0-3.934 1.692-3.934 3.77v14.023h-2.382V402.15c0-3.392 2.833-6.15 6.316-6.15h29.158c3.48 0 6.31 2.758 6.31 6.15v19.137c0 3.393-2.83 6.154-6.31 6.154h-.259c.604 3.62-.548 6.974-3.325 9.57-.223.208-.515.32-.813.32"/>
            <path fill-rule="nonzero" d="M24.96 475.6c.288 0 .512.192.576.48l5.024 21.056c.096.48-.224.864-.704.864h-2.144c-.48-.096-.512-.608-.64-1.12l-.096-.352c-.16-.672-.576-.992-1.248-.992h-3.904c-.672 0-1.088.32-1.248.992l-.256.992c-.064.288-.288.48-.576.48h-2.048c-.48 0-.8-.384-.704-.864l5.024-21.056c.064-.288.288-.48.576-.48h2.368zm-3.008 15.232c-.192.8.192 1.28.992 1.28h1.664c.832 0 1.216-.48 1.024-1.28l-1.152-4.64c-.288-1.12-1.12-1.12-1.408 0l-1.12 4.64zM37.376 475.6c.288 0 .512.16.576.416l3.04 9.568c.224.672.864.576.864-.128v-9.216c0-.352.288-.64.64-.64h2.24c.352 0 .64.288.64.64v21.12c0 .352-.288.64-.64.64H42.4c-.288 0-.512-.16-.576-.416l-3.008-9.568c-.224-.672-.864-.576-.864.128v9.216c0 .352-.288.64-.64.64h-2.24a.642.642 0 0 1-.64-.64v-21.12c0-.352.288-.64.64-.64h2.304zm19.168 7.552a.642.642 0 0 1-.64-.64v-1.504c0-1.184-.128-2.56-1.568-2.56-1.728 0-1.568 1.92-1.568 3.456 0 1.408 1.888 2.944 2.528 3.392.416.288 4.16 3.008 4.16 6.4 0 3.52-.704 6.688-5.12 6.688-2.912 0-5.12-1.088-5.12-6.688v-.64c0-.352.288-.64.64-.64h2.272c.352 0 .64.288.64.64v1.536c0 1.216.096 2.56 1.568 2.56 1.728 0 1.568-1.92 1.568-3.456 0-1.344-2.272-3.296-2.528-3.456-.704-.448-4.16-3.36-4.16-6.336 0-3.552.704-6.688 5.12-6.688 4.128 0 5.12 2.688 5.12 6.688v.608c0 .352-.288.64-.64.64h-2.272zm9.184-7.552c.352 0 .64.256.64.608l.544 7.584c.064.736.896.8 1.056.064l1.472-7.744c.064-.32.288-.512.608-.512h1.184c.32 0 .544.192.608.512l1.472 7.744c.16.736.992.672 1.056-.064l.544-7.584c0-.352.288-.608.64-.608h2.144c.448 0 .736.32.672.768l-2.4 21.056a.596.596 0 0 1-.608.544l-1.792.032c-.32 0-.544-.192-.608-.512L71.2 488.4c-.192-.928-.96-.928-1.152 0l-1.728 9.088c-.064.32-.288.512-.608.512l-1.792-.032a.596.596 0 0 1-.608-.544l-2.4-21.056c-.064-.448.224-.768.672-.768h2.144zm26.144 0c.352 0 .64.288.64.64v2.24c0 .352-.288.64-.64.64h-4.128c-.928 0-1.44.512-1.44 1.44v3.04c0 .928.512 1.44 1.44 1.44h4.128c.352 0 .64.288.64.64v2.24c0 .352-.288.64-.64.64h-4.128c-.928 0-1.44.512-1.44 1.44v3.04c0 .928.512 1.44 1.44 1.44h4.128c.352 0 .64.288.64.64v2.24c0 .352-.288.64-.64.64h-8.448a.642.642 0 0 1-.64-.64v-21.12c0-.352.288-.64.64-.64h8.448zm10.688 0c2.944 0 5.088 2.624 5.088 6.496 0 1.696-.384 3.136-1.056 4.192-.448.736-.384 1.184.096 1.92.384.576.608 1.376.608 2.336v4.864c0 .608.064 1.12.16 1.568.16.544-.096 1.024-.672 1.024h-2.176s-.608-.448-.736-1.056c-.064-.416-.096-.96-.096-1.632v-4.832c0-.672-.288-1.184-.704-1.504-.512-.416-1.056-.416-1.696-.416-.672 0-1.024.512-1.024 1.44v7.36c0 .352-.288.64-.64.64h-2.24a.642.642 0 0 1-.64-.64v-21.12c0-.352.288-.64.64-.64h5.088zm-2.208 8c0 .928.384 1.44 1.12 1.44h1.088c1.376 0 1.568-1.856 1.568-2.944 0-1.504-.48-2.976-1.568-2.976h-.768c-.928 0-1.44.512-1.44 1.44v3.04zm14.432-8c.352 0 .64.288.64.64v21.12c0 .352-.288.64-.64.64h-2.24a.642.642 0 0 1-.64-.64v-21.12c0-.352.288-.64.64-.64h2.24zm8.384 0c.288 0 .512.16.576.416l3.04 9.568c.224.672.864.576.864-.128v-9.216c0-.352.288-.64.64-.64h2.24c.352 0 .64.288.64.64v21.12c0 .352-.288.64-.64.64h-2.336c-.288 0-.512-.16-.576-.416l-3.008-9.568c-.224-.672-.864-.576-.864.128v9.216c0 .352-.288.64-.64.64h-2.24a.642.642 0 0 1-.64-.64v-21.12c0-.352.288-.64.64-.64h2.304zm11.84 5.312c.064-3.456 2.336-5.696 6.048-5.696 3.648 0 5.984 2.24 5.984 5.728v1.408c0 .352-.288.64-.64.64h-2.24a.642.642 0 0 1-.64-.64v-1.408c0-1.088-.288-2.208-2.464-2.208-2.208 0-2.528 1.12-2.528 2.208v11.712c0 1.088.32 2.208 2.528 2.208 2.176 0 2.464-1.12 2.464-2.208v-1.312c0-.928-.32-1.44-.928-1.44h-.928a.642.642 0 0 1-.64-.64v-2.24c0-.352.288-.64.64-.64h4.736c.352 0 .64.288.64.64v5.632c0 3.488-2.336 5.728-5.984 5.728-3.712 0-5.984-2.24-6.048-5.696v-11.776zM23.632 513.136c0-3.552 2.272-5.92 5.696-5.92 3.456 0 5.76 2.368 5.76 5.92v11.488c0 1.088-.224 2.016-.64 2.816-.224.48-.224.992.096 1.408l1.28 1.792c.224.288.16.672-.128.896l-1.76 1.312c-.32.224-.704.16-.928-.16l-1.376-1.888c-.288-.416-.768-.576-1.312-.48-.32.032-.64.064-.992.064-3.424-.064-5.696-2.368-5.696-5.76v-11.488zm3.52 11.488c0 1.344.864 2.24 2.176 2.24 1.312 0 2.208-.896 2.208-2.24v-11.488c0-1.44-.896-2.4-2.208-2.4-1.312 0-2.176.96-2.176 2.4v11.488zM42.288 507.6c.352 0 .64.288.64.64v17.824c0 .768 1.28.8 1.344.8.064 0 1.344-.032 1.344-.8V508.24c0-.352.288-.64.64-.64h2.24c.352 0 .64.288.64.64v17.824c0 2.432-2.112 4.32-4.864 4.32s-4.864-1.888-4.864-4.32V508.24c0-.352.288-.64.64-.64h2.24zm20.736 0c.352 0 .64.288.64.64v2.24c0 .352-.288.64-.64.64h-4.128c-.928 0-1.44.512-1.44 1.44v3.04c0 .928.512 1.44 1.44 1.44h4.128c.352 0 .64.288.64.64v2.24c0 .352-.288.64-.64.64h-4.128c-.928 0-1.44.512-1.44 1.44v3.04c0 .928.512 1.44 1.44 1.44h4.128c.352 0 .64.288.64.64v2.24c0 .352-.288.64-.64.64h-8.448a.642.642 0 0 1-.64-.64v-21.12c0-.352.288-.64.64-.64h8.448zm11.328 7.552a.642.642 0 0 1-.64-.64v-1.504c0-1.184-.128-2.56-1.568-2.56-1.728 0-1.568 1.92-1.568 3.456 0 1.408 1.888 2.944 2.528 3.392.416.288 4.16 3.008 4.16 6.4 0 3.52-.704 6.688-5.12 6.688-2.912 0-5.12-1.088-5.12-6.688v-.64c0-.352.288-.64.64-.64h2.272c.352 0 .64.288.64.64v1.536c0 1.216.096 2.56 1.568 2.56 1.728 0 1.568-1.92 1.568-3.456 0-1.344-2.272-3.296-2.528-3.456-.704-.448-4.16-3.36-4.16-6.336 0-3.552.704-6.688 5.12-6.688 4.128 0 5.12 2.688 5.12 6.688v.608c0 .352-.288.64-.64.64h-2.272zm14.592-7.552c.352 0 .64.288.64.64v2.24c0 .352-.288.64-.64.64h-.96c-.928 0-1.44.512-1.44 1.44v16.8c0 .352-.288.64-.64.64h-2.24a.642.642 0 0 1-.64-.64v-16.8c0-.928-.416-1.44-1.184-1.44h-1.216a.642.642 0 0 1-.64-.64v-2.24c0-.352.288-.64.64-.64h8.32zm7.2 0c.352 0 .64.288.64.64v21.12c0 .352-.288.64-.64.64h-2.24a.642.642 0 0 1-.64-.64v-21.12c0-.352.288-.64.64-.64h2.24zm4.96 4.864c.064-2.976 2.304-5.248 5.184-5.248 2.976 0 5.216 2.4 5.216 5.248v12.768c-.064 2.976-2.368 5.152-5.216 5.152-2.944-.096-5.184-2.24-5.184-5.152v-12.768zm3.52 12.768c0 1.472 1.28 1.632 1.664 1.632.416 0 1.696-.16 1.696-1.632v-12.768c0-1.536-1.28-1.728-1.696-1.728-.384 0-1.664.192-1.664 1.728v12.768zm14.144-17.632c.288 0 .512.16.576.416l3.04 9.568c.224.672.864.576.864-.128v-9.216c0-.352.288-.64.64-.64h2.24c.352 0 .64.288.64.64v21.12c0 .352-.288.64-.64.64h-2.336c-.288 0-.512-.16-.576-.416l-3.008-9.568c-.224-.672-.864-.576-.864.128v9.216c0 .352-.288.64-.64.64h-2.24a.642.642 0 0 1-.64-.64v-21.12c0-.352.288-.64.64-.64h2.304zm19.168 7.552a.642.642 0 0 1-.64-.64v-1.504c0-1.184-.128-2.56-1.568-2.56-1.728 0-1.568 1.92-1.568 3.456 0 1.408 1.888 2.944 2.528 3.392.416.288 4.16 3.008 4.16 6.4 0 3.52-.704 6.688-5.12 6.688-2.912 0-5.12-1.088-5.12-6.688v-.64c0-.352.288-.64.64-.64h2.272c.352 0 .64.288.64.64v1.536c0 1.216.096 2.56 1.568 2.56 1.728 0 1.568-1.92 1.568-3.456 0-1.344-2.272-3.296-2.528-3.456-.704-.448-4.16-3.36-4.16-6.336 0-3.552.704-6.688 5.12-6.688 4.128 0 5.12 2.688 5.12 6.688v.608c0 .352-.288.64-.64.64h-2.272z"/>
        </g>
        <g fill="#937AEA">
            <path d="M75.839 632.15a1.19 1.19 0 0 1-.9-.41l-10.203-11.733a1.19 1.19 0 1 1 1.798-1.564l9.505 10.93 21.201-14.625a1.191 1.191 0 1 1 1.353 1.961l-22.078 15.23c-.206.142-.443.21-.676.21"/>
            <path d="M81.772 595.953c-15.103 0-27.39 12.287-27.39 27.39 0 15.104 12.287 27.393 27.39 27.393 5.279 0 10.42-1.525 14.87-4.411a1.19 1.19 0 0 1 1.045-.124l10.725 3.777-3.775-10.721a1.195 1.195 0 0 1 .123-1.044 27.297 27.297 0 0 0 4.41-14.87c0-15.103-12.29-27.39-27.398-27.39m28.588 57.165c-.132 0-.266-.022-.395-.068l-12.524-4.41a29.64 29.64 0 0 1-15.669 4.478C65.356 653.118 52 639.761 52 623.342c0-16.416 13.356-29.77 29.772-29.77 16.42 0 29.78 13.354 29.78 29.77 0 5.54-1.546 10.945-4.476 15.668l4.408 12.521a1.193 1.193 0 0 1-1.124 1.587"/>
            <path fill-rule="nonzero" d="M22.336 681.472a.642.642 0 0 1-.64-.64v-.928c0-2.304-.608-3.488-1.792-3.488-1.152 0-1.76 1.184-1.76 3.488 0 1.024.96 2.176 2.816 3.392 3.008 1.92 4.608 4.128 4.608 6.4 0 4.384-1.952 6.688-5.664 6.688-3.68 0-5.632-2.304-5.632-6.688v-.96c0-.352.288-.64.64-.64h2.592c.352 0 .64.288.64.64v.96c0 2.304.608 3.488 1.76 3.488 1.184 0 1.792-1.184 1.792-3.488 0-1.248-.96-2.432-2.848-3.456-2.976-1.728-4.576-3.904-4.576-6.336 0-4.384 1.952-6.688 5.632-6.688 3.712 0 5.664 2.304 5.664 6.688v.928c0 .352-.288.64-.64.64h-2.592zm16.16-7.872c.352 0 .64.288.64.64v2.24c0 .352-.288.64-.64.64h-4.128c-.928 0-1.44.512-1.44 1.44v3.04c0 .928.512 1.44 1.44 1.44h4.128c.352 0 .64.288.64.64v2.24c0 .352-.288.64-.64.64h-4.128c-.928 0-1.44.512-1.44 1.44v3.04c0 .928.512 1.44 1.44 1.44h4.128c.352 0 .64.288.64.64v2.24c0 .352-.288.64-.64.64h-8.448a.642.642 0 0 1-.64-.64v-21.12c0-.352.288-.64.64-.64h8.448zm12.8 0c.352 0 .64.288.64.64v2.24c0 .352-.288.64-.64.64h-.96c-.928 0-1.44.512-1.44 1.44v16.8c0 .352-.288.64-.64.64h-2.24a.642.642 0 0 1-.64-.64v-16.8c0-.928-.416-1.44-1.184-1.44h-1.216a.642.642 0 0 1-.64-.64v-2.24c0-.352.288-.64.64-.64h8.32zm12.16 0c.352 0 .64.288.64.64v2.24c0 .352-.288.64-.64.64h-.96c-.928 0-1.44.512-1.44 1.44v16.8c0 .352-.288.64-.64.64h-2.24a.642.642 0 0 1-.64-.64v-16.8c0-.928-.416-1.44-1.184-1.44h-1.216a.642.642 0 0 1-.64-.64v-2.24c0-.352.288-.64.64-.64h8.32zm7.2 0c.352 0 .64.288.64.64v16.8c0 .928.512 1.44 1.44 1.44h1.696c.352 0 .64.288.64.64v2.24c0 .352-.288.64-.64.64h-6.016a.642.642 0 0 1-.64-.64v-21.12c0-.352.288-.64.64-.64h2.24zm16.864 0c.352 0 .64.288.64.64v2.24c0 .352-.288.64-.64.64h-4.128c-.928 0-1.44.512-1.44 1.44v3.04c0 .928.512 1.44 1.44 1.44h4.128c.352 0 .64.288.64.64v2.24c0 .352-.288.64-.64.64h-4.128c-.928 0-1.44.512-1.44 1.44v3.04c0 .928.512 1.44 1.44 1.44h4.128c.352 0 .64.288.64.64v2.24c0 .352-.288.64-.64.64h-8.448a.642.642 0 0 1-.64-.64v-21.12c0-.352.288-.64.64-.64h8.448zm7.872 0c.288 0 .512.16.608.448l3.168 12c.192.736.768.736.96 0l3.168-12a.615.615 0 0 1 .608-.448h2.272c.352 0 .64.288.64.64v21.12c0 .352-.288.64-.64.64H104a.642.642 0 0 1-.64-.64v-5.696c.032-.512-.672-.672-.8-.064l-1.152 5.888c-.064.32-.288.512-.608.512h-2.304c-.32 0-.544-.192-.608-.512l-1.152-5.888c-.096-.544-.832-.512-.8.064v5.696c0 .352-.288.64-.64.64H93.12a.642.642 0 0 1-.64-.64v-21.12c0-.352.288-.64.64-.64h2.272zm25.312 0c.352 0 .64.288.64.64v2.24c0 .352-.288.64-.64.64h-4.128c-.928 0-1.44.512-1.44 1.44v3.04c0 .928.512 1.44 1.44 1.44h4.128c.352 0 .64.288.64.64v2.24c0 .352-.288.64-.64.64h-4.128c-.928 0-1.44.512-1.44 1.44v3.04c0 .928.512 1.44 1.44 1.44h4.128c.352 0 .64.288.64.64v2.24c0 .352-.288.64-.64.64h-8.448a.642.642 0 0 1-.64-.64v-21.12c0-.352.288-.64.64-.64h8.448zm7.904 0c.288 0 .512.16.576.416l3.04 9.568c.224.672.864.576.864-.128v-9.216c0-.352.288-.64.64-.64h2.24c.352 0 .64.288.64.64v21.12c0 .352-.288.64-.64.64h-2.336c-.288 0-.512-.16-.576-.416l-3.008-9.568c-.224-.672-.864-.576-.864.128v9.216c0 .352-.288.64-.64.64h-2.24a.642.642 0 0 1-.64-.64v-21.12c0-.352.288-.64.64-.64h2.304zm20.64 0c.352 0 .64.288.64.64v2.24c0 .352-.288.64-.64.64h-.96c-.928 0-1.44.512-1.44 1.44v16.8c0 .352-.288.64-.64.64h-2.24a.642.642 0 0 1-.64-.64v-16.8c0-.928-.416-1.44-1.184-1.44h-1.216a.642.642 0 0 1-.64-.64v-2.24c0-.352.288-.64.64-.64h8.32z"/>
        </g>
        <g fill="#2985CF">
            <path d="M101.575 811.455a1.191 1.191 0 0 1 0 2.381H61.974a1.19 1.19 0 1 1 0-2.381h39.6zM110.36 759c.657 0 1.191.533 1.191 1.19v6.645c0 4.6-3.74 8.342-8.335 8.342h-6.21a1.19 1.19 0 0 1-.358-.055v4.728c0 7.798-6.035 14.213-13.681 14.822l-.001 8.975h9.828a1.19 1.19 0 1 1 0 2.383H81.878a1.207 1.207 0 0 1-.102.004l-.102-.005H70.757a1.19 1.19 0 1 1 0-2.381l9.827-.001v-8.975c-7.646-.608-13.68-7.024-13.68-14.822v-4.705c-.087.02-.178.032-.271.032h-6.298c-4.596 0-8.335-3.742-8.335-8.342v-6.644c0-.658.534-1.191 1.19-1.191H110.362zm-16.095 2.381H69.285v18.47c0 6.885 5.603 12.486 12.49 12.486 6.889 0 12.492-5.601 12.492-12.487l-.001-18.469zm14.904 0H96.648v11.469a1.19 1.19 0 0 1 .359-.055h6.21c3.282 0 5.953-2.674 5.953-5.96v-5.453zm-42.267 0h-12.52v5.454c0 3.286 2.67 5.96 5.952 5.96h6.298c.093 0 .184.01.27.03v-11.444z"/>
            <path fill-rule="nonzero" d="M18.384 839.6c.288 0 .512.192.576.48l5.024 21.056c.096.48-.224.864-.704.864h-2.144c-.48-.096-.512-.608-.64-1.12l-.096-.352c-.16-.672-.576-.992-1.248-.992h-3.904c-.672 0-1.088.32-1.248.992l-.256.992c-.064.288-.288.48-.576.48H11.12c-.48 0-.8-.384-.704-.864l5.024-21.056c.064-.288.288-.48.576-.48h2.368zm-3.008 15.232c-.192.8.192 1.28.992 1.28h1.664c.832 0 1.216-.48 1.024-1.28l-1.152-4.64c-.288-1.12-1.12-1.12-1.408 0l-1.12 4.64zM33.584 839.6c2.944 0 5.088 2.624 5.088 6.496 0 1.696-.384 3.136-1.056 4.192-.448.736-.384 1.184.096 1.92.384.576.608 1.376.608 2.336v4.864c0 .608.064 1.12.16 1.568.16.544-.096 1.024-.672 1.024h-2.176s-.608-.448-.736-1.056c-.064-.416-.096-.96-.096-1.632v-4.832c0-.672-.288-1.184-.704-1.504-.512-.416-1.056-.416-1.696-.416-.672 0-1.024.512-1.024 1.44v7.36c0 .352-.288.64-.64.64h-2.24a.642.642 0 0 1-.64-.64v-21.12c0-.352.288-.64.64-.64h5.088zm-2.208 8c0 .928.384 1.44 1.12 1.44h1.088c1.376 0 1.568-1.856 1.568-2.944 0-1.504-.48-2.976-1.568-2.976h-.768c-.928 0-1.44.512-1.44 1.44v3.04zm17.152-8c3.072 0 5.28 2.624 5.28 6.496 0 1.472-.192 2.656-.8 3.744-.384.736-.384 1.28-.032 2.016.576 1.12.832 2.4.832 3.68 0 3.84-2.112 6.464-5.28 6.464h-4.96a.642.642 0 0 1-.64-.64v-21.12c0-.352.288-.64.64-.64h4.96zm-2.08 17.44c0 .928.352 1.44 1.056 1.44h1.024c1.44 0 1.76-1.6 1.76-2.944 0-1.184-.352-2.976-1.76-2.976h-.64c-.928 0-1.44.512-1.44 1.44v3.04zm0-9.44c0 .928.352 1.44 1.056 1.44h1.024c1.44 0 1.76-1.6 1.76-2.944 0-1.184-.352-2.976-1.76-2.976h-.64c-.928 0-1.44.512-1.44 1.44v3.04zm14.24-8c.352 0 .64.288.64.64v21.12c0 .352-.288.64-.64.64h-2.24a.642.642 0 0 1-.64-.64v-21.12c0-.352.288-.64.64-.64h2.24zm13.28 0c.352 0 .64.288.64.64v2.24c0 .352-.288.64-.64.64h-.96c-.928 0-1.44.512-1.44 1.44v16.8c0 .352-.288.64-.64.64h-2.24a.642.642 0 0 1-.64-.64v-16.8c0-.928-.416-1.44-1.184-1.44h-1.216a.642.642 0 0 1-.64-.64v-2.24c0-.352.288-.64.64-.64h8.32zm10.048 0c2.944 0 5.088 2.624 5.088 6.496 0 1.696-.384 3.136-1.056 4.192-.448.736-.384 1.184.096 1.92.384.576.608 1.376.608 2.336v4.864c0 .608.064 1.12.16 1.568.16.544-.096 1.024-.672 1.024h-2.176s-.608-.448-.736-1.056c-.064-.416-.096-.96-.096-1.632v-4.832c0-.672-.288-1.184-.704-1.504-.512-.416-1.056-.416-1.696-.416-.672 0-1.024.512-1.024 1.44v7.36c0 .352-.288.64-.64.64h-2.24a.642.642 0 0 1-.64-.64v-21.12c0-.352.288-.64.64-.64h5.088zm-2.208 8c0 .928.384 1.44 1.12 1.44h1.088c1.376 0 1.568-1.856 1.568-2.944 0-1.504-.48-2.976-1.568-2.976h-.768c-.928 0-1.44.512-1.44 1.44v3.04zm17.12-8c.288 0 .544.192.608.512l3.488 21.088c.064.448-.224.8-.672.8h-2.08c-.288 0-.544-.224-.608-.512l-.128-.768c-.096-.576-.416-.864-1.024-.864H97.04c-.608 0-.928.256-1.024.8l-.128.8a.596.596 0 0 1-.608.544H93.2c-.448 0-.736-.352-.672-.8l3.488-21.088a.614.614 0 0 1 .608-.512h2.304zm-2.112 15.808c-.096.64.224 1.024.896 1.024h.128c.672 0 .992-.384.896-1.024l-.416-2.72c-.128-.832-.96-.832-1.088 0l-.416 2.72zm18.016-15.808c.352 0 .64.288.64.64v2.24c0 .352-.288.64-.64.64h-.96c-.928 0-1.44.512-1.44 1.44v16.8c0 .352-.288.64-.64.64h-2.24a.642.642 0 0 1-.64-.64v-16.8c0-.928-.416-1.44-1.184-1.44h-1.216a.642.642 0 0 1-.64-.64v-2.24c0-.352.288-.64.64-.64h8.32zm7.2 0c.352 0 .64.288.64.64v21.12c0 .352-.288.64-.64.64h-2.24a.642.642 0 0 1-.64-.64v-21.12c0-.352.288-.64.64-.64h2.24zm4.96 4.864c.064-2.976 2.304-5.248 5.184-5.248 2.976 0 5.216 2.4 5.216 5.248v12.768c-.064 2.976-2.368 5.152-5.216 5.152-2.944-.096-5.184-2.24-5.184-5.152v-12.768zm3.52 12.768c0 1.472 1.28 1.632 1.664 1.632.416 0 1.696-.16 1.696-1.632v-12.768c0-1.536-1.28-1.728-1.696-1.728-.384 0-1.664.192-1.664 1.728v12.768zm14.144-17.632c.288 0 .512.16.576.416l3.04 9.568c.224.672.864.576.864-.128v-9.216c0-.352.288-.64.64-.64h2.24c.352 0 .64.288.64.64v21.12c0 .352-.288.64-.64.64h-2.336c-.288 0-.512-.16-.576-.416l-3.008-9.568c-.224-.672-.864-.576-.864.128v9.216c0 .352-.288.64-.64.64h-2.24a.642.642 0 0 1-.64-.64v-21.12c0-.352.288-.64.64-.64h2.304z"/>
        </g>
        <path stroke="#CFCFCF" stroke-dasharray="4,4" stroke-linecap="square" stroke-width="2" d="M81.595 148l-.127 40M81.595 346l-.127 40M81.595 543l-.127 40M81.595 709l-.127 40"/>
    </g>
</svg>
