<svg xmlns="http://www.w3.org/2000/svg" xmlns:xlink="http://www.w3.org/1999/xlink" width="24" height="24" viewBox="0 0 24 24">
    <defs>
        <path id="a" d="M0 .054h23.946v23.833H0z"/>
        <path id="c" d="M0 24h24V0H0z"/>
    </defs>
    <g fill="none" fill-rule="evenodd">
        <mask id="b" fill="#fff">
            <use xlink:href="#a"/>
        </mask>
        <path fill="#2985CF" d="M21.327.054H2.619C1.18.054 0 1.254 0 2.72v15.013C0 19.201 1.179 20.4 2.62 20.4h7.285c.828.895 2.012 2.36 2.068 3.487.058-1.128 1.241-2.592 2.068-3.487h7.286c1.44 0 2.62-1.2 2.62-2.666V2.721c0-1.467-1.18-2.667-2.62-2.667m0 .993c.894 0 1.621.75 1.621 1.674v15.013c0 .923-.727 1.673-1.621 1.673h-7.723l-.297.32c-.536.58-.981 1.13-1.333 1.65-.353-.52-.799-1.07-1.336-1.65l-.296-.32H2.62c-.894 0-1.621-.75-1.621-1.673V2.721c0-.923.727-1.674 1.621-1.674h18.708" mask="url(#b)"/>
        <mask id="d" fill="#fff">
            <use xlink:href="#c"/>
        </mask>
        <path fill="#2985CF" d="M3.692 9.23h15.693v-.922H3.692zM3.692 5.538h15.693v-.923H3.692zM3.692 12h15.693v-.923H3.692zM7.385 15.692h9.23v-.923h-9.23z" mask="url(#d)"/>
    </g>
</svg>
