<svg xmlns="http://www.w3.org/2000/svg" xmlns:xlink="http://www.w3.org/1999/xlink" width="261" height="24" viewBox="0 0 261 24">
    <defs>
        <path id="a" d="M.214.197H12.78v11.74H.214z"/>
        <path id="c" d="M0 23.671h260.365V.197H0z"/>
    </defs>
    <g fill="none" fill-rule="evenodd">
        <path fill="#67C5BB" d="M0 .802v4.399h4.898v6.868h2.026V3.374H2.027v-.745h10.538v.745H7.667v8.695h2.027V5.2h4.898V.802z"/>
        <g transform="translate(0 .132)">
            <path fill="#67C5BB" d="M19.997 2.497h4.762c3.918 0 6.35 2.2 6.35 5.278 0 1.749-.672 3.218-2.007 4.162h2.804c.86-1.096 1.298-2.483 1.298-4.162 0-4.229-3.142-7.105-8.445-7.105h-6.79v11.267h2.028v-9.44z"/>
            <path fill="#67C5BB" d="M24.692 10.55h-1.926V5.069h2.263c1.926 0 3.175 1.116 3.175 2.707 0 1.86-1.182 2.774-3.512 2.774m5.674-2.774c0-2.606-2.128-4.534-5.607-4.534h-4.02v8.695h6.922c1.803-.654 2.705-2.037 2.705-4.161M39.859 2.497h.743v9.44h2.026V.67h-4.796v11.267h2.027zM53.539 2.497h.743v9.44h2.026V.67h-4.796v11.267h2.027z"/>
            <g transform="translate(60.722)">
                <mask id="b" fill="#fff">
                    <use xlink:href="#a"/>
                </mask>
                <path fill="#67C5BB" d="M5.281 10.99C3.29 9.5 2.275 8.249 2.275 6.32c0-2.537 2.06-4.296 5.168-4.296 1.284 0 2.432.135 3.445.44v.744c-1.25-.305-2.398-.44-3.445-.44-2.567 0-4.425 1.387-4.425 3.519 0 1.251.946 2.571 1.723 3.282.405.338.98.778 1.689 1.285l1.399 1.083h3.101c-.294-.275-.61-.546-.954-.812l-1.283-.914-1.317-1.015-1.048-.913c-.777-.71-1.114-1.354-1.114-1.929 0-1.116 1.148-1.759 2.533-1.759 1.689 0 3.378.373 5.033 1.083V1.077a16.968 16.968 0 0 0-5.438-.88C5.146.197 3.423.806 2.14 1.99.856 3.174.214 4.595.214 6.32c0 2.343.901 3.9 2.823 5.617h3.49L5.28 10.99z" mask="url(#b)"/>
            </g>
            <path fill="#67C5BB" d="M83.264 3.242h-4.898v-.745h10.54v.745h-4.899v8.695h2.027V5.069h4.897V.67H76.34V5.07h4.898v6.868h2.027zM96.336 2.497h9.323v.745h-8.58v7.984h7.6v.71h2.027V9.4h-7.6V5.07h8.58V.67H94.31v11.267h2.026zM114.88 2.497h4.73c3.276 0 5.809.88 7.532 2.606 1.756 1.725 2.635 4.026 2.635 6.834h2.33c0-3.35-1.047-6.09-3.175-8.154S123.798.67 119.846.67h-6.992v11.267h2.027v-9.44z"/>
            <path fill="#67C5BB" d="M119.61 3.242h-3.986v8.695h2.027V5.069h1.958c2.5 0 4.29.676 5.405 2.03 1.108 1.345 1.681 2.958 1.688 4.838h2.33c-.006-2.153-.648-4.137-2.093-5.853-1.385-1.76-3.986-2.842-7.33-2.842"/>
            <mask id="d" fill="#fff">
                <use xlink:href="#c"/>
            </mask>
            <path fill="#67C5BB" d="M4.898 23.197h4.796V11.931H4.898zM17.97 23.198h4.796v-8.255h.642l6.249 8.255h5.877l-6.857-9.067c1.459-.477 2.565-1.21 3.32-2.2H17.97v11.267zM51.512 14.063c0 3.146-1.553 5.21-4.424 5.21-2.804 0-4.46-2.2-4.46-5.21V11.93h-4.796v1.421c0 6.53 2.939 10.32 9.256 10.32 7.498 0 9.22-4.602 9.22-10.557v-1.184h-4.796v2.132zM64.349 12.439c.202.17.81.609 1.857 1.353 1.047.71 1.824 1.353 2.33 1.895.507.54.778 1.116.778 1.691 0 1.252-1.047 1.895-3.142 1.895-1.486 0-3.006-.338-3.715-.575L60.7 18.02v4.703c2.263.643 4.189.947 5.776.947 4.966 0 7.837-2.199 7.837-6.394 0-1.913-.896-3.702-2.66-5.346H63.76c.187.168.381.337.589.508M81.237 23.197h4.797V11.931h-4.797zM94.31 23.198h13.477v-4.399h-8.681v-5.007h7.6v-1.86H94.31zM126.905 11.965c0 4.567-2.398 6.834-7.228 6.834h-2.026v-6.868h-4.797v11.267h6.857c3.952 0 6.992-1.015 9.052-3.012 2.095-2.03 3.141-4.77 3.141-8.255h-5l.001.034" mask="url(#d)"/>
            <path fill="#2985CF" d="M154.23 8.153v3.132H148.8v5.369h1.038V12.33h1.061V17.7h-3.127v-7.46h5.415V9.195h-7.736v1.046h1.277v1.045h-2.321V8.153z" mask="url(#d)"/>
            <path fill="#2985CF" d="M142.174 4.933c1.858-1.928 4.29-2.91 7.228-2.91 3.243 0 5.98 1.32 7.5 3.316 1.587 1.929 2.397 4.297 2.397 6.598h2.095c0-2.74-.98-5.549-2.871-7.85-1.892-2.3-5.168-3.89-9.12-3.89-3.581 0-6.486 1.15-8.749 3.417-2.23 2.267-3.344 5.041-3.344 8.323h2.095c0-2.74.911-5.075 2.77-7.004" mask="url(#d)"/>
            <path fill="#2985CF" d="M154.402 4.155c-1.453-.913-3.108-1.387-5.033-1.387-2.702 0-4.931.846-6.654 2.572-1.723 1.725-2.567 3.924-2.567 6.597h2.161c0-2.131.676-3.891 1.993-5.278 1.317-1.387 3.006-2.064 5.067-2.064 2.162 0 3.884.745 5.134 2.233 1.25 1.455 1.891 3.18 1.891 5.109h2.162c0-3.079-1.283-5.921-4.154-7.782M172.339 10.55h-1.926V5.069h2.263c1.926 0 3.175 1.116 3.175 2.707 0 1.86-1.181 2.774-3.512 2.774m5.674-2.774c0-2.606-2.128-4.534-5.607-4.534h-4.02v8.695h6.922c1.803-.654 2.705-2.037 2.705-4.161" mask="url(#d)"/>
            <path fill="#2985CF" d="M167.644 2.497h4.762c3.918 0 6.35 2.2 6.35 5.278 0 1.749-.672 3.218-2.007 4.162h2.804c.86-1.096 1.298-2.483 1.298-4.162 0-4.229-3.142-7.105-8.445-7.105h-6.79v11.267h2.028v-9.44zM193.99 4.088l3.597 7.849h2.087L194.227.197h-.473l-5.326 11.74h2.073z" mask="url(#d)"/>
            <path fill="#2985CF" d="M191.308 11.937h1.923l.726-1.692.725 1.692h2.063l-2.788-6.022zM210.644 4.933c1.857-1.928 4.29-2.91 7.33-2.91 2.161 0 3.951.44 5.37 1.287l-.439.575c-1.318-.745-3.006-1.117-5-1.117-2.803 0-5.066.88-6.755 2.605-1.689 1.726-2.533 3.891-2.533 6.564h2.162c0-2.132.642-3.89 1.925-5.278 1.284-1.387 3.007-2.064 5.202-2.064 1.993 0 3.783.575 5.404 1.76l2.736-3.316c-2.128-1.895-4.897-2.842-8.275-2.842-3.648 0-6.553 1.15-8.748 3.45-2.162 2.267-3.243 5.042-3.243 8.29h2.094c0-2.74.912-5.075 2.77-7.004M232.566 2.497h.743v9.44h2.027V.67h-4.797v11.267h2.027zM248.915 2.497h9.322v.745h-8.58v7.984h7.6v.71h2.027V9.4h-7.6V5.07h8.58V.67h-13.376v11.267h2.027zM154.402 17.175c-1.318 1.387-2.973 2.098-5.033 2.098-2.196 0-3.952-.744-5.202-2.2-1.25-1.488-1.858-3.213-1.858-5.142h-4.999c0 3.248 1.081 6.023 3.276 8.323 2.196 2.267 5.135 3.417 8.817 3.417 3.512 0 6.384-1.15 8.613-3.417 2.263-2.267 3.378-5.041 3.378-8.323h-5c0 2.098-.675 3.857-1.992 5.244M165.617 23.198h4.796v-8.255h.642l6.249 8.255h5.877l-6.857-9.067c1.459-.477 2.565-1.21 3.32-2.2h-14.027v11.267z" mask="url(#d)"/>
            <path fill="#2985CF" d="M196.321 15.754h-4.729l1.663-3.823h-4.827l-5.111 11.267h5l1.384-3.045h8.512l1.317 3.045h5.37l-5.226-11.267h-4.969zM209.022 20.22c2.196 2.301 5.135 3.451 8.85 3.451 3.547 0 6.451-1.082 8.715-3.214l-2.871-3.214c-1.453 1.354-3.277 2.03-5.438 2.03-2.196 0-3.986-.676-5.405-2.064-1.385-1.387-2.094-3.146-2.094-5.278h-5c0 3.214 1.082 5.955 3.243 8.29M230.54 23.198h13.409v-4.399h-8.613v-6.868h-4.797zM259.284 13.792v-1.86h-12.396v11.265h13.477V18.8h-8.68v-5.007z" mask="url(#d)"/>
        </g>
    </g>
</svg>
