<svg xmlns="http://www.w3.org/2000/svg" width="24" height="24" viewBox="0 0 24 24">
    <g fill="#E7A146" fill-rule="evenodd">
        <path d="M11.962 1.224C5.144 1.224.957 3.264.957 4.726c0 1.463 4.187 3.502 11.005 3.502 6.818 0 11.005-2.04 11.005-3.502 0-1.462-4.187-3.502-11.005-3.502m0 8.228c-3.11 0-6.04-.436-8.25-1.227C1.285 7.355 0 6.145 0 4.726c0-1.418 1.284-2.628 3.713-3.498C5.923.436 8.852 0 11.962 0c3.11 0 6.039.436 8.249 1.228 2.429.87 3.712 2.08 3.712 3.498 0 1.419-1.283 2.628-3.712 3.499-2.21.791-5.14 1.227-8.25 1.227"/>
        <path d="M11.962 13.001C6.017 13.001 0 11.507 0 8.651h.957c0 .399.632 1.28 3.003 2.05 2.131.694 4.973 1.076 8.002 1.076 3.029 0 5.87-.382 8.002-1.075 2.37-.772 3.003-1.652 3.003-2.051h.956c0 2.856-6.017 4.35-11.961 4.35"/>
        <path d="M11.962 16.658C6.017 16.658 0 15.164 0 12.307h.957c0 .398.632 1.279 3.003 2.05 2.132.695 4.973 1.077 8.002 1.077 3.028 0 5.87-.382 8.002-1.076 2.37-.772 3.003-1.653 3.003-2.051h.956c0 2.857-6.017 4.351-11.961 4.351"/>
        <path d="M11.962 20.314C6.017 20.314 0 18.82 0 15.962h.957c0 .399.632 1.28 3.003 2.052 2.131.694 4.973 1.076 8.002 1.076 3.028 0 5.87-.382 8.002-1.076 2.37-.773 3.003-1.653 3.003-2.052h.956c0 2.857-6.017 4.352-11.961 4.352"/>
        <path d="M11.962 23.97C6.017 23.97 0 22.474 0 19.617h.957c0 .399.632 1.28 3.003 2.051 2.131.694 4.973 1.076 8.002 1.076 3.028 0 5.87-.382 8.002-1.076 2.37-.772 3.003-1.652 3.003-2.05h.956c0 2.856-6.017 4.35-11.961 4.35"/>
    </g>
</svg>
