<svg xmlns="http://www.w3.org/2000/svg" xmlns:xlink="http://www.w3.org/1999/xlink" width="80" height="33" viewBox="0 0 80 33">
    <defs>
        <path id="a" d="M0 .165h80v31.973H0z"/>
    </defs>
    <g fill="none" fill-rule="evenodd">
        <path fill="#67C5BB" d="M0 .941v2.757h2.843v11.361h2.784V3.698h2.844V.94H0zm1.177 1.145h6.117v.467H4.451v5.446H4.02V2.553H1.177v-.467z"/>
        <g>
            <mask id="b" fill="#fff">
                <use xlink:href="#a"/>
            </mask>
            <path fill="#67C5BB" d="M32.421 7.246h.45V1.553h-.45v5.693zm-8.284 0h.45V1.554h-.45v5.692zm7.057 0V8.532c0 1.899-.94 3.144-2.68 3.144-1.697 0-2.7-1.327-2.7-3.144V.451H22.91v7.652c0 3.94 1.78 6.227 5.605 6.227 4.54 0 5.583-2.777 5.583-6.37V.451h-2.904v6.795zM47.456 1.554h6.382v.449h-2.966v5.243h-.45V2.003h-2.966v-.45zm-1.227 1.55h2.966V14.045h2.904V3.105h2.966V.45H46.23v2.654zM72.473 11.39h-1.227V3.105h1.186c1.513 0 2.597.408 3.272 1.225.672.812 1.019 1.785 1.023 2.92h.123v.016c0 2.756-1.452 4.124-4.377 4.124zm-2.905-9.836h2.864c1.984 0 3.518.53 4.561 1.572 1.063 1.04 1.595 2.427 1.596 4.12h-.45c-.005-1.298-.394-2.494-1.269-3.529-.838-1.061-2.413-1.714-4.438-1.714h-2.414v5.243h-.45V1.554zM80 7.249c0-2.02-.634-3.674-1.923-4.92C76.79 1.084 74.968.451 72.575.451h-4.234v13.593h4.152c2.393 0 4.234-.612 5.482-1.817 1.268-1.224 1.902-2.876 1.902-4.978H80zM13.787 6.412V3.105h1.37c1.166 0 1.923.674 1.923 1.633 0 1.123-.716 1.674-2.127 1.674h-1.166zm-1.678-4.858h2.884c2.373 0 3.846 1.327 3.846 3.184 0 1.053-.406 1.938-1.211 2.508h-.869c1.086-.396 1.63-1.229 1.63-2.508 0-1.572-1.289-2.735-3.396-2.735H12.56v5.243h-.45V1.554zm7.267 5.692h-.052c.519-.66.783-1.496.783-2.508 0-2.552-1.902-4.287-5.114-4.287h-4.111v13.593h2.905V9.063h.388l3.784 4.981h3.56l-4.153-5.471c.883-.287 1.553-.73 2.01-1.327zM40.72 7.246l-.75-.568c-1.207-.899-1.821-1.654-1.821-2.818 0-1.53 1.248-2.592 3.13-2.592.777 0 1.472.081 2.086.265v.45a8.854 8.854 0 0 0-2.086-.266c-1.555 0-2.68.837-2.68 2.123 0 .755.573 1.552 1.043 1.98.246.204.594.47 1.023.776l.843.65h-.788zm2.67 0h-.003a8.369 8.369 0 0 0-.574-.487l-.777-.55-.798-.613-.634-.551c-.47-.43-.675-.817-.675-1.164 0-.674.695-1.062 1.534-1.062 1.023 0 2.045.225 3.048.654V.696a10.306 10.306 0 0 0-3.294-.53c-1.33 0-2.372.367-3.15 1.081-.777.715-1.166 1.572-1.166 2.613 0 1.414.546 2.353 1.71 3.39h.004c.112.1.228.2.352.302.123.102.491.368 1.125.817.634.428 1.105.816 1.412 1.143.306.327.47.674.47 1.02 0 .756-.634 1.144-1.902 1.144-.9 0-1.82-.204-2.25-.347l-1.064-.408v2.837c1.37.388 2.537.572 3.498.572 3.007 0 4.745-1.327 4.745-3.858 0-1.155-.542-2.234-1.61-3.226zM58.338 1.554h5.646v.449h-5.196V6.82h4.603v.425h-5.053V1.554zm1.678 6.815h4.602V5.718h-4.602V3.105h5.195V.45h-8.1v13.593h8.162V11.39h-5.257V8.37z" mask="url(#b)"/>
            <path fill="#2985CF" d="M4.613 24.114h1.51v-.677h-.831v-.678h5.03v.678H6.8v4.832h2.033v-3.477h-.69v2.8H7.47v-3.478H11v-2.029H4.613z" mask="url(#b)"/>
            <path fill="#2985CF" d="M7.84 29.289c-1.428 0-2.57-.483-3.382-1.425-.813-.964-1.208-2.08-1.208-3.33 0-1.38.44-2.519 1.295-3.417.857-.898 1.955-1.337 3.295-1.337 1.405 0 2.525.482 3.337 1.447a4.946 4.946 0 0 1 1.23 3.307c0 1.358-.44 2.497-1.296 3.396-.856.898-1.932 1.359-3.272 1.359zm-4.678-9.29c1.208-1.249 2.79-1.884 4.7-1.884 2.107 0 3.886.854 4.874 2.147a6.752 6.752 0 0 1 1.56 4.27h-.484c0-1.992-.835-3.832-2.7-5.037-.945-.591-2.02-.898-3.272-.898-1.757 0-3.207.548-4.327 1.665-1.119 1.117-1.667 2.54-1.668 4.27H1.36c.001-1.773.594-3.284 1.801-4.533zm12.495 4.534c0-1.774-.638-3.592-1.867-5.081-1.23-1.49-3.36-2.52-5.929-2.52-2.327 0-4.216.744-5.687 2.213C.726 20.612.001 22.408 0 24.533v.003c0 2.103.704 3.899 2.13 5.388 1.428 1.469 3.338 2.214 5.731 2.214 2.284 0 4.15-.745 5.6-2.214 1.47-1.468 2.195-3.263 2.196-5.388v-.002-.001zM21.52 23.638v-3.55h1.472c1.252 0 2.064.722 2.064 1.752 0 1.206-.768 1.798-2.283 1.798H21.52zm-1.8-5.217h3.097c2.547 0 4.128 1.425 4.128 3.42 0 1.13-.436 2.08-1.3 2.692h-.933c1.166-.425 1.75-1.32 1.75-2.693 0-1.687-1.384-2.936-3.645-2.936h-2.614v5.629h-.483V18.42zm7.802 6.112h-.056c.557-.71.84-1.607.84-2.693 0-2.74-2.042-4.602-5.49-4.602h-4.413V31.83h3.118v-5.348h.417l4.063 5.348h3.82l-4.457-5.874c.948-.308 1.667-.783 2.158-1.424zM35.29 27.01l1.08-2.477h-.013l.47-1.093.471 1.096h.017l1.05 2.473H35.29zm1.559-7.558l2.337 5.08h-.548l-1.81-3.897-1.722 3.898h-.524l2.267-5.081zm3.693 5.08l-3.54-7.6h-.307l-3.46 7.6h-.002l-3.323 7.299h3.25l.9-1.973h5.534l.856 1.973h3.492l-3.398-7.298h-.002zM47.675 20c1.208-1.25 2.789-1.885 4.765-1.885 1.406 0 2.57.284 3.492.832l-.285.373c-.857-.482-1.955-.723-3.25-.723-1.823 0-3.294.57-4.392 1.687-1.098 1.117-1.646 2.519-1.647 4.249h-.483c0-1.774.593-3.285 1.8-4.534m4.963 9.29c-1.427 0-2.591-.439-3.513-1.337-.9-.899-1.362-2.038-1.362-3.418 0-1.38.418-2.518 1.252-3.417.834-.898 1.954-1.337 3.381-1.337 1.296 0 2.46.373 3.514 1.14l1.779-2.148c-1.384-1.227-3.184-1.84-5.38-1.84-2.372 0-4.26.744-5.688 2.234-1.404 1.468-2.107 3.264-2.108 5.367v.003c.001 2.08.704 3.855 2.108 5.366 1.428 1.49 3.338 2.236 5.754 2.236 2.305 0 4.194-.702 5.665-2.082l-1.866-2.082c-.945.876-2.13 1.315-3.536 1.315M61.927 24.533h.483v-6.111h-.483v6.11zm1.801.003v-7.298H60.61V31.83h8.718v-2.85h-5.6v-4.445zM72.556 18.421h6.06v.483H73.04v5.172h4.94v.457h-5.423V18.42zm1.8 10.56v-3.243h4.941V22.893h-4.94v-2.806h5.577v-2.85h-8.696V31.832H80v-2.85h-5.643z" mask="url(#b)"/>
        </g>
    </g>
</svg>
